<?xml version="1.0" encoding="UTF-8"?>
<svg id="Layer_1" xmlns="http://www.w3.org/2000/svg" version="1.1" viewBox="0 0 900 175">
  <!-- Generator: Adobe Illustrator 30.0.0, SVG Export Plug-In . SVG Version: 2.1.1 Build 123)  -->
  <defs>
    <style>
      .st0 {
        fill: #fffff4;
      }

      .st1 {
        fill: #ffe414;
      }

      .st2 {
        fill: #151314;
      }
    </style>
  </defs>
  <path class="st0" d="M277.5,103.21c-.87-3.49-1.74-6.81-2.62-10.3-.7-2.62-2.79-2.62-3.49,0-.87,3.32-1.57,6.81-2.44,10.12l-9.43,37.18h-32.29l-20.42-95.12h32.64l6.98,39.79c.52,2.62.7,5.06,1.22,7.85.35,2.27,3.14,2.27,3.67.17.7-2.79,1.22-5.06,1.92-7.68l10.65-40.14h22.69l10.12,38.4c.87,3.49,1.75,6.81,2.27,9.08.52,2.62,3.49,2.62,3.84.17.52-3.49.7-6.11,1.22-8.9l6.81-38.75h28.8l-20.42,95.12h-32.11l-9.6-37ZM345.04,140.22V21.53h32.29v39.45c0,2.09,2.44,2.62,3.84.35,8.03-12.74,14.84-17.98,28.1-17.98,18.68,0,28.1,13.44,28.1,34.38v62.48h-32.29v-44.16c0-12.57-2.79-21.12-13.27-21.12-9.42,0-14.49,7.16-14.49,20.77v44.51h-32.29ZM517.12,140.22l-3.14-13.44c-.52-2.44-2.27-2.44-4.01.17-6.11,9.25-12.92,15.01-27.05,15.01-19.55,0-37.7-16.93-37.7-49.39s18.15-49.22,37.7-49.22c14.14,0,20.95,5.76,27.05,15.01,1.74,2.62,3.49,2.62,4.01.17l3.14-13.44h27.58v95.12h-27.58ZM495.48,70.4c-9.08,0-16.23,7.51-16.23,22.34s7.16,22.17,16.23,22.17,16.23-7.85,16.23-22.34-7.16-22.17-16.23-22.17ZM564.59,106.88v-34.38h-11.69v-27.4c12.74-.17,17.45-3.49,20.25-20.42h23.74v20.42h24.26v27.4h-24.26v28.28c0,12.04,5.06,15.01,12.74,15.01,4.01,0,8.2-.52,11.52-2.1v26.36c-5.59,1.74-11.87,2.79-21.12,2.79-21.99,0-35.43-10.12-35.43-35.96ZM629.33,140.22V45.09h28.28l3.49,15.88c.52,2.09,2.97,2.62,4.36.35,8.03-12.74,14.84-17.98,28.1-17.98,18.68,0,28.1,13.44,28.1,34.38v62.48h-32.29v-44.16c0-12.57-2.79-21.12-13.27-21.12-9.42,0-14.49,7.16-14.49,20.77v44.51h-32.29ZM729.51,93.44c0-31.59,20.95-50.97,50.27-50.97s50.27,19.37,50.27,50.97-20.94,49.39-50.27,49.39-50.27-18.85-50.27-49.39ZM779.78,70.4c-9.08,0-16.23,7.51-16.23,22.34s7.16,22.17,16.23,22.17,16.23-7.85,16.23-22.34-7.16-22.17-16.23-22.17ZM843.3,106.88v-34.38h-11.7v-27.4c12.74-.17,17.45-3.49,20.25-20.42h23.74v20.42h24.26v27.4h-24.26v28.28c0,12.04,5.06,15.01,12.74,15.01,4.01,0,8.2-.52,11.52-2.1v26.36c-5.59,1.74-11.87,2.79-21.12,2.79-21.99,0-35.43-10.12-35.43-35.96Z"/>
  <path class="st1" d="M174.28,87.14c0,67.37-19.76,87.14-87.14,87.14S0,154.51,0,87.14,19.77,0,87.14,0s87.14,19.76,87.14,87.14Z"/>
  <path class="st2" d="M67.9,127.44c8.87,0,14.14-9.2,10.6-23.54l-1-4.07c-.53-2.27,1.6-3.13,2.8-1.13l5.74,9.27c9.8,15.87,13.81,19.47,21.14,19.47,6.94,0,12.67-4.67,23.21-21.14l5.07-7.94c7.4-11.6,10.4-17.54,10.4-25.28,0-9.74-7.14-17.67-18.01-17.67-8.34,0-13.54,3.67-18.14,12.87l-1.2,2.4c-.8,1.67-2.53,1.53-3.13,0l-.87-2.33c-3.27-8.74-8.94-12.94-17.41-12.94s-13.87,4.2-17.21,12.94l-.87,2.27c-.6,1.6-2.2,1.73-3.13,0l-1.2-2.33c-4.67-9.14-10-12.87-18.34-12.87-10.87,0-17.94,7.94-17.94,17.67,0,7.74,2.8,13.67,10.34,25.08l4.94,7.47c11.87,18.01,17.34,21.81,24.21,21.81Z"/>
</svg>