<svg xmlns="http://www.w3.org/2000/svg" viewBox="0.5 0.37400001287460327 168.13600158691406 23.505998611450195"><g xmlns="http://www.w3.org/2000/svg" clip-path="url(#:r0:-a)"><path fill="#1C8751" d="M67.936 6.629c5.492 0 8.142 4.126 8.142 8.156 0 .678-.063 1.384-.063 1.484H63.77c.357 2.677 2.037 4.192 4.49 4.192 1.875 0 3.296-.837 3.684-2.32h4.037c-.55 3.642-3.685 5.739-7.819 5.739-5.524 0-8.4-4.257-8.4-8.64 0-4.385 2.683-8.611 8.174-8.611Zm30.213.26h3.911v3.384h-3.91v7.641c0 1.58.97 2.451 2.326 2.451.582 0 1.129-.095 1.584-.225v3.514c-.516.13-1.229.226-2.069.226-3.456 0-5.912-1.805-5.912-5.546v-8.06h-2.497V6.888h2.497V1.954h4.07V6.89Zm21.634 16.733h-4.07v-1.967c-.776 1.258-2.616 2.225-4.782 2.225-5.008 0-8.012-3.546-8.012-8.643 0-5.094 3.036-8.61 7.948-8.61 2.068 0 3.876.871 4.846 2.163V.375h4.07v23.247ZM129.946 6.63c4.976 0 8.563 3.644 8.563 8.608s-3.619 8.64-8.563 8.64c-4.944 0-8.561-3.674-8.561-8.64 0-4.966 3.585-8.608 8.561-8.608Zm18.254 0c4.976 0 8.563 3.644 8.563 8.608s-3.619 8.64-8.563 8.64c-4.944 0-8.561-3.674-8.561-8.64 0-4.966 3.585-8.608 8.561-8.608ZM9.893.375v3.306l5.26-3.306 14.654 9.206-2.287 3.64-2.82-1.77v12.18H5.606V11.45l-2.819 1.77L.5 9.58l5.094-3.2V.375h4.299Zm41.609 12.64a73.289 73.289 0 0 1 2.425 4.288s-.131-2.13-.131-4.935V.375h4.296v23.247H53.44l-7.85-12.575c-1.446-2.405-2.413-4.267-2.424-4.288.002.028.162 2.145.162 4.934v11.93h-4.33V.374h4.654l7.85 12.64Zm31.822-1.226 3.264-4.902h4.427l-5.46 8.222 5.685 8.513h-4.524l-3.392-5.126h-.003l-3.424 5.126h-4.489l5.686-8.48-5.492-8.255h4.426l3.296 4.902Zm84.182-5.16c.484 0 .808.032 1.13.096v3.868c-.484-.096-1-.192-1.615-.192-2.357 0-4.555 2.032-4.555 7.062v6.16h-4.07V6.886h4.07v3.062c.744-1.903 3.004-3.32 5.04-3.32Zm-55.993 3.514c-2.682 0-4.457 2.032-4.457 5.094 0 3.063 1.775 5.126 4.457 5.126s4.458-2.063 4.458-5.126-1.776-5.094-4.458-5.094Zm18.433 0c-2.583 0-4.393 2.095-4.393 5.094 0 3 1.711 5.126 4.393 5.126 2.682 0 4.426-2.095 4.426-5.126 0-3.03-1.842-5.093-4.426-5.093Zm18.254 0c-2.583 0-4.393 2.095-4.393 5.094s1.711 5.126 4.393 5.126c2.682 0 4.427-2.095 4.427-5.126 0-3.03-1.843-5.093-4.427-5.093Zm-80.266-.42c-2.1 0-3.522 1.258-4.037 3.483h7.785c-.163-2-1.454-3.482-3.748-3.482Z"></path></g></svg>