<?xml version="1.0" encoding="UTF-8"?>
<svg id="Layer_1" xmlns="http://www.w3.org/2000/svg" version="1.1" viewBox="66 69 265 265">
  <defs>
    <style>
      .st0 { fill: #ffe414; }
      .st1 { fill: #151314; }
    </style>
  </defs>
  <path class="st1" d="M385.49,192.74c0,149.03-43.72,192.74-192.74,192.74S0,341.77,0,192.74,43.72,0,192.75,0s192.74,43.72,192.74,192.74Z"/>
  <path class="st0" d="M150.19,281.89c19.62,0,31.27-20.36,23.46-52.07l-2.21-9c-1.18-5.02,3.54-6.93,6.2-2.51l12.69,20.5c21.68,35.11,30.54,43.08,46.76,43.08,15.34,0,28.03-10.33,51.34-46.76l11.21-17.55c16.37-25.67,23.01-38.8,23.01-55.91,0-21.54-15.79-39.09-39.83-39.09-18.44,0-29.95,8.11-40.12,28.47l-2.66,5.31c-1.77,3.69-5.6,3.39-6.93,0l-1.92-5.16c-7.23-19.32-19.77-28.62-38.5-28.62s-30.68,9.29-38.06,28.62l-1.92,5.02c-1.33,3.54-4.87,3.84-6.93,0l-2.65-5.16c-10.33-20.21-22.13-28.47-40.57-28.47-24.05,0-39.68,17.56-39.68,39.09,0,17.11,6.2,30.24,22.87,55.47l10.92,16.52c26.26,39.83,38.35,48.24,53.55,48.24Z"/>
</svg>