<svg xmlns="http://www.w3.org/2000/svg" viewBox="0 0 100 100">
  <rect width="100" height="100" fill="#000000"/>
  <g transform="translate(8, 10) scale(5.4)">
    <path fill="#ffffff" d="m 8.56,16.123 c 2.637,0 5.118,-0.807 7.003,-2.275 V 7.09 H 8.346 v 2.46 h 4.162 v 2.797 l -0.063,0.041 c -1.116,0.728 -2.462,1.114 -3.885,1.114 -3.05,0 -5.438,-2.391 -5.438,-5.441 0,-2.912 2.44,-5.282 5.438,-5.282 1.736,0 3.313,0.524 4.453,1.474 l 1.91,-2.078 C 13.275,0.752 11.078,0 8.56,0 3.84,0 0,3.616 0,8.06 c 0,4.447 3.84,8.063 8.56,8.063 z"/>
  </g>
</svg>
